G04 Layer_Color=128*
%FSLAX25Y25*%
%MOIN*%
G70*
G01*
G75*
%ADD25C,0.00200*%
D25*
X-62362Y23917D02*
X-50551D01*
X-56457Y18012D02*
Y29823D01*
X50551Y23917D02*
X62362D01*
X56457Y18012D02*
Y29823D01*
X-66969Y69311D02*
X-62953D01*
X-64961Y67303D02*
Y71319D01*
X-55158Y69311D02*
X-51142D01*
X-53150Y67303D02*
Y71319D01*
X-43346Y69311D02*
X-39331D01*
X-41339Y67303D02*
Y71319D01*
X-31535Y69311D02*
X-27520D01*
X-29528Y67303D02*
Y71319D01*
X-19724Y69311D02*
X-15709D01*
X-17717Y67303D02*
Y71319D01*
X-7913Y69311D02*
X-3898D01*
X-5906Y67303D02*
Y71319D01*
X3898Y69311D02*
X7913D01*
X5906Y67303D02*
Y71319D01*
X15709Y69311D02*
X19724D01*
X17717Y67303D02*
Y71319D01*
X27520Y69311D02*
X31535D01*
X29528Y67303D02*
Y71319D01*
X39331Y69311D02*
X43346D01*
X41339Y67303D02*
Y71319D01*
X51142Y69311D02*
X55158D01*
X53150Y67303D02*
Y71319D01*
X62953Y69311D02*
X66969D01*
X64961Y67303D02*
Y71319D01*
X-66969Y57500D02*
X-62953D01*
X-64961Y55492D02*
Y59508D01*
X-55158Y57500D02*
X-51142D01*
X-53150Y55492D02*
Y59508D01*
X-43346Y57500D02*
X-39331D01*
X-41339Y55492D02*
Y59508D01*
X-31535Y57500D02*
X-27520D01*
X-29528Y55492D02*
Y59508D01*
X-19724Y57500D02*
X-15709D01*
X-17717Y55492D02*
Y59508D01*
X-7913Y57500D02*
X-3898D01*
X-5906Y55492D02*
Y59508D01*
X3898Y57500D02*
X7913D01*
X5906Y55492D02*
Y59508D01*
X15709Y57500D02*
X19724D01*
X17717Y55492D02*
Y59508D01*
X27520Y57500D02*
X31535D01*
X29528Y55492D02*
Y59508D01*
X39331Y57500D02*
X43346D01*
X41339Y55492D02*
Y59508D01*
X51142Y57500D02*
X55158D01*
X53150Y55492D02*
Y59508D01*
X62953Y57500D02*
X66969D01*
X64961Y55492D02*
Y59508D01*
X-70256Y1170000D02*
X-64744D01*
X-67500Y1167244D02*
Y1172756D01*
X-55256Y1170000D02*
X-49744D01*
X-52500Y1167244D02*
Y1172756D01*
X-40256Y1170000D02*
X-34744D01*
X-37500Y1167244D02*
Y1172756D01*
X-25256Y1170000D02*
X-19744D01*
X-22500Y1167244D02*
Y1172756D01*
X-10256Y1170000D02*
X-4744D01*
X-7500Y1167244D02*
Y1172756D01*
X4744Y1170000D02*
X10256D01*
X7500Y1167244D02*
Y1172756D01*
X19744Y1170000D02*
X25256D01*
X22500Y1167244D02*
Y1172756D01*
X34744Y1170000D02*
X40256D01*
X37500Y1167244D02*
Y1172756D01*
X49744Y1170000D02*
X55256D01*
X52500Y1167244D02*
Y1172756D01*
X64744Y1170000D02*
X70256D01*
X67500Y1167244D02*
Y1172756D01*
X13750Y125650D02*
X16250D01*
X15000Y124400D02*
Y126900D01*
X33770Y157480D02*
X36270D01*
X35020Y156230D02*
Y158730D01*
X-16250Y235000D02*
X-13750D01*
X-15000Y233750D02*
Y236250D01*
X-36250Y242500D02*
X-33750D01*
X-35000Y241250D02*
Y243750D01*
M02*
