G04 Layer_Physical_Order=1*
G04 Layer_Color=255*
%FSLAX25Y25*%
%MOIN*%
G70*
G01*
G75*
%ADD10C,0.02500*%
%ADD11C,0.13780*%
%ADD12P,0.07458X8X202.5*%
%ADD13R,0.06890X0.06890*%
%ADD14R,0.10000X0.10000*%
%ADD15P,0.10824X8X22.5*%
%ADD16C,0.05000*%
D10*
X-22500Y1170000D02*
X-15000Y1162500D01*
Y235000D02*
Y1162500D01*
X-45000Y102500D02*
Y1147500D01*
X-64961Y82539D02*
X-45000Y102500D01*
X-64961Y69311D02*
Y82539D01*
X-25000Y110000D02*
Y1157500D01*
X-59000Y76000D02*
X-25000Y110000D01*
X-59000Y63461D02*
Y76000D01*
X-5000Y117461D02*
Y1167500D01*
X-47200Y75261D02*
X-5000Y117461D01*
X-47200Y63450D02*
Y75261D01*
X35020Y157480D02*
Y1152500D01*
X35000Y1152500D02*
X35020Y1152480D01*
X35000Y1152500D02*
X52500Y1170000D01*
X26800Y63400D02*
X35439D01*
X41339Y57500D01*
X23600Y66600D02*
X26800Y63400D01*
X23600Y66600D02*
Y72800D01*
X5000Y91400D02*
X23600Y72800D01*
X45000Y77461D02*
X53150Y69311D01*
X45000Y77461D02*
Y1147500D01*
X25000Y85650D02*
X41339Y69311D01*
X25000Y85650D02*
Y1157500D01*
X-53150Y57500D02*
X-47200Y63450D01*
X-64961Y57500D02*
X-59000Y63461D01*
X-67500Y1170000D02*
X-45000Y1147500D01*
X-52500Y1170000D02*
X-35000Y1152500D01*
Y242500D02*
Y1152500D01*
X-37500Y1170000D02*
X-25000Y1157500D01*
X45000Y1147500D02*
X67500Y1170000D01*
X25000Y1157500D02*
X37500Y1170000D01*
X15000Y1162500D02*
X22500Y1170000D01*
X15000Y125650D02*
Y1162500D01*
X5000Y1167500D02*
X7500Y1170000D01*
X5000Y91400D02*
Y1167500D01*
X-7500Y1170000D02*
X-5000Y1167500D01*
D11*
X-56457Y23917D02*
D03*
X56457D02*
D03*
D12*
X-64961Y69311D02*
D03*
X-53150D02*
D03*
X-41339D02*
D03*
X-29528D02*
D03*
X-17717D02*
D03*
X-5906D02*
D03*
X5906D02*
D03*
X17717D02*
D03*
X29528D02*
D03*
X41339D02*
D03*
X53150D02*
D03*
X64961D02*
D03*
X-64961Y57500D02*
D03*
X-53150D02*
D03*
X-41339D02*
D03*
X-29528D02*
D03*
X-17717D02*
D03*
X-5906D02*
D03*
X5906D02*
D03*
X17717D02*
D03*
X29528D02*
D03*
X41339D02*
D03*
X53150D02*
D03*
D13*
X64961D02*
D03*
D14*
X-67500Y1170000D02*
D03*
D15*
X-52500D02*
D03*
X-37500D02*
D03*
X-22500D02*
D03*
X-7500D02*
D03*
X7500D02*
D03*
X22500D02*
D03*
X37500D02*
D03*
X52500D02*
D03*
X67500D02*
D03*
D16*
X15000Y125650D02*
D03*
X35020Y157480D02*
D03*
X-15000Y235000D02*
D03*
X-35000Y242500D02*
D03*
M02*
