M48
;Layer_Color=9474304
;FILE_FORMAT=2:5
INCH,LZ
;TYPE=PLATED
T1F00S00C0.02500
T2F00S00C0.04016
T3F00S00C0.05512
T4F00S00C0.11811
%
T01
X0015Y012565
X003502Y015748
X-0015Y0235
X-0035Y02425
T02
X-0064961Y00575
Y0069311
X-005315
Y00575
X-0041339
Y0069311
X-0029528
X-0017717
Y00575
X-0029528
X-0005906
Y0069311
X0005906
Y00575
X0017717
Y0069311
X0029528
X0041339
Y00575
X0029528
X005315
Y0069311
X0064961
Y00575
T03
X-00375Y117
X-00225
X-00075
X00075
X00225
X00375
X00525
X00675
X-00525
X-00675
T04
X-0056457Y0023917
X0056457
M30
