G04 Layer_Physical_Order=2*
G04 Layer_Color=16711680*
%FSLAX25Y25*%
%MOIN*%
G70*
G01*
G75*
%ADD10C,0.02500*%
%ADD11C,0.13780*%
%ADD12P,0.07458X8X202.5*%
%ADD13R,0.06890X0.06890*%
%ADD14R,0.10000X0.10000*%
%ADD15P,0.10824X8X22.5*%
%ADD16C,0.05000*%
D10*
X47300Y63350D02*
Y160200D01*
X-35000Y242500D02*
X47300Y160200D01*
X-15000Y235000D02*
X59000Y161000D01*
Y63461D02*
Y161000D01*
Y63461D02*
X64961Y57500D01*
X-41339Y69311D02*
X15000Y125650D01*
X-53150Y69311D02*
X35020Y157480D01*
X47300Y63350D02*
X53150Y57500D01*
D11*
X-56457Y23917D02*
D03*
X56457D02*
D03*
D12*
X-64961Y69311D02*
D03*
X-53150D02*
D03*
X-41339D02*
D03*
X-29528D02*
D03*
X-17717D02*
D03*
X-5906D02*
D03*
X5906D02*
D03*
X17717D02*
D03*
X29528D02*
D03*
X41339D02*
D03*
X53150D02*
D03*
X64961D02*
D03*
X-64961Y57500D02*
D03*
X-53150D02*
D03*
X-41339D02*
D03*
X-29528D02*
D03*
X-17717D02*
D03*
X-5906D02*
D03*
X5906D02*
D03*
X17717D02*
D03*
X29528D02*
D03*
X41339D02*
D03*
X53150D02*
D03*
D13*
X64961D02*
D03*
D14*
X-67500Y1170000D02*
D03*
D15*
X-52500D02*
D03*
X-37500D02*
D03*
X-22500D02*
D03*
X-7500D02*
D03*
X7500D02*
D03*
X22500D02*
D03*
X37500D02*
D03*
X52500D02*
D03*
X67500D02*
D03*
D16*
X15000Y125650D02*
D03*
X35020Y157480D02*
D03*
X-15000Y235000D02*
D03*
X-35000Y242500D02*
D03*
M02*
